<?xml version="1.0" encoding="UTF-8" standalone="no"?>
<!-- Created with Inkscape (http://www.inkscape.org/) -->

<svg
   xmlns:dc="http://purl.org/dc/elements/1.1/"
   xmlns:cc="http://creativecommons.org/ns#"
   xmlns:rdf="http://www.w3.org/1999/02/22-rdf-syntax-ns#"
   xmlns:svg="http://www.w3.org/2000/svg"
   xmlns="http://www.w3.org/2000/svg"
   xmlns:xlink="http://www.w3.org/1999/xlink"
   xmlns:sodipodi="http://sodipodi.sourceforge.net/DTD/sodipodi-0.dtd"
   xmlns:inkscape="http://www.inkscape.org/namespaces/inkscape"
   width="1052.3622"
   height="744.09448"
   id="svg3068"
   version="1.1"
   inkscape:version="0.48.3.1 r9886"
   sodipodi:docname="board2.svg">
  <defs
     id="defs3070">
    <linearGradient
       inkscape:collect="always"
       id="linearGradient3848">
      <stop
         style="stop-color:#ffffff;stop-opacity:1;"
         offset="0"
         id="stop3850" />
      <stop
         style="stop-color:#ffffff;stop-opacity:0;"
         offset="1"
         id="stop3852" />
    </linearGradient>
    <linearGradient
       inkscape:collect="always"
       xlink:href="#linearGradient3848"
       id="linearGradient3860"
       gradientUnits="userSpaceOnUse"
       x1="370.81937"
       y1="739.59222"
       x2="559.09409"
       y2="661.8266" />
    <linearGradient
       inkscape:collect="always"
       xlink:href="#linearGradient3848"
       id="linearGradient3868"
       gradientUnits="userSpaceOnUse"
       x1="370.81937"
       y1="739.59222"
       x2="559.09409"
       y2="661.8266" />
    <linearGradient
       inkscape:collect="always"
       xlink:href="#linearGradient3848"
       id="linearGradient3880"
       gradientUnits="userSpaceOnUse"
       x1="370.81937"
       y1="739.59222"
       x2="559.09409"
       y2="661.8266" />
    <linearGradient
       inkscape:collect="always"
       xlink:href="#linearGradient3848"
       id="linearGradient3888"
       gradientUnits="userSpaceOnUse"
       x1="370.81937"
       y1="739.59222"
       x2="559.09409"
       y2="661.8266" />
    <linearGradient
       inkscape:collect="always"
       xlink:href="#linearGradient3848"
       id="linearGradient3912"
       gradientUnits="userSpaceOnUse"
       x1="370.81937"
       y1="739.59222"
       x2="559.09409"
       y2="661.8266" />
    <linearGradient
       inkscape:collect="always"
       xlink:href="#linearGradient3848"
       id="linearGradient3920"
       gradientUnits="userSpaceOnUse"
       x1="370.81937"
       y1="739.59222"
       x2="559.09409"
       y2="661.8266" />
    <linearGradient
       inkscape:collect="always"
       xlink:href="#linearGradient3848"
       id="linearGradient3928"
       gradientUnits="userSpaceOnUse"
       x1="370.81937"
       y1="739.59222"
       x2="559.09409"
       y2="661.8266" />
    <linearGradient
       inkscape:collect="always"
       xlink:href="#linearGradient3848"
       id="linearGradient3936"
       gradientUnits="userSpaceOnUse"
       x1="370.81937"
       y1="739.59222"
       x2="559.09409"
       y2="661.8266" />
    <linearGradient
       inkscape:collect="always"
       xlink:href="#linearGradient3848"
       id="linearGradient3944"
       gradientUnits="userSpaceOnUse"
       x1="370.81937"
       y1="739.59222"
       x2="559.09409"
       y2="661.8266" />
    <linearGradient
       inkscape:collect="always"
       xlink:href="#linearGradient3848"
       id="linearGradient3952"
       gradientUnits="userSpaceOnUse"
       x1="370.81937"
       y1="739.59222"
       x2="559.09409"
       y2="661.8266" />
    <linearGradient
       inkscape:collect="always"
       xlink:href="#linearGradient3848"
       id="linearGradient3960"
       gradientUnits="userSpaceOnUse"
       x1="370.81937"
       y1="739.59222"
       x2="559.09409"
       y2="661.8266" />
    <linearGradient
       inkscape:collect="always"
       xlink:href="#linearGradient3848"
       id="linearGradient3968"
       gradientUnits="userSpaceOnUse"
       x1="370.81937"
       y1="739.59222"
       x2="559.09409"
       y2="661.8266" />
    <linearGradient
       inkscape:collect="always"
       xlink:href="#linearGradient3848"
       id="linearGradient3976"
       gradientUnits="userSpaceOnUse"
       x1="370.81937"
       y1="739.59222"
       x2="559.09409"
       y2="661.8266" />
  </defs>
  <sodipodi:namedview
     id="base"
     pagecolor="#ffffff"
     bordercolor="#666666"
     borderopacity="1.0"
     inkscape:pageopacity="0.0"
     inkscape:pageshadow="2"
     inkscape:zoom="1.2216191"
     inkscape:cx="584.54316"
     inkscape:cy="372.04724"
     inkscape:document-units="px"
     inkscape:current-layer="layer1"
     showgrid="false"
     inkscape:window-width="1855"
     inkscape:window-height="1056"
     inkscape:window-x="65"
     inkscape:window-y="24"
     inkscape:window-maximized="1" />
  <metadata
     id="metadata3073">
    <rdf:RDF>
      <cc:Work
         rdf:about="">
        <dc:format>image/svg+xml</dc:format>
        <dc:type
           rdf:resource="http://purl.org/dc/dcmitype/StillImage" />
        <dc:title></dc:title>
      </cc:Work>
    </rdf:RDF>
  </metadata>
  <g
     inkscape:label="Layer 1"
     inkscape:groupmode="layer"
     id="layer1"
     transform="translate(0,-308.2677)">
    <g
       id="g3856"
       transform="translate(-12.278787,-36.836361)">
      <path
         transform="translate(0,308.2677)"
         d="m 559.09409,661.8266 c 0,22.37858 -18.14142,40.52 -40.51999,40.52 -22.37858,0 -40.52,-18.14142 -40.52,-40.52 0,-22.37858 18.14142,-40.52 40.52,-40.52 22.37857,0 40.51999,18.14142 40.51999,40.52 z"
         sodipodi:ry="40.519997"
         sodipodi:rx="40.519997"
         sodipodi:cy="661.8266"
         sodipodi:cx="518.5741"
         id="path3844"
         style="fill:#34bd46;fill-opacity:1;stroke:#000000;stroke-opacity:1"
         sodipodi:type="arc" />
      <path
         sodipodi:type="arc"
         style="fill:url(#linearGradient3860);fill-opacity:1;stroke:none"
         id="path3846"
         sodipodi:cx="518.5741"
         sodipodi:cy="661.8266"
         sodipodi:rx="40.519997"
         sodipodi:ry="40.519997"
         d="m 559.09409,661.8266 c 0,22.37858 -18.14142,40.52 -40.51999,40.52 -22.37858,0 -40.52,-18.14142 -40.52,-40.52 0,-22.37858 18.14142,-40.52 40.52,-40.52 22.37857,0 40.51999,18.14142 40.51999,40.52 z"
         transform="translate(0,308.2677)" />
    </g>
    <g
       transform="translate(-251.30584,-254.58019)"
       id="g3862">
      <path
         sodipodi:type="arc"
         style="fill:#34bd46;fill-opacity:1;stroke:#000000;stroke-opacity:1"
         id="path3864"
         sodipodi:cx="518.5741"
         sodipodi:cy="661.8266"
         sodipodi:rx="40.519997"
         sodipodi:ry="40.519997"
         d="m 559.09409,661.8266 c 0,22.37858 -18.14142,40.52 -40.51999,40.52 -22.37858,0 -40.52,-18.14142 -40.52,-40.52 0,-22.37858 18.14142,-40.52 40.52,-40.52 22.37857,0 40.51999,18.14142 40.51999,40.52 z"
         transform="translate(0,308.2677)" />
      <path
         transform="translate(0,308.2677)"
         d="m 559.09409,661.8266 c 0,22.37858 -18.14142,40.52 -40.51999,40.52 -22.37858,0 -40.52,-18.14142 -40.52,-40.52 0,-22.37858 18.14142,-40.52 40.52,-40.52 22.37857,0 40.51999,18.14142 40.51999,40.52 z"
         sodipodi:ry="40.519997"
         sodipodi:rx="40.519997"
         sodipodi:cy="661.8266"
         sodipodi:cx="518.5741"
         id="path3866"
         style="fill:url(#linearGradient3868);fill-opacity:1;stroke:none"
         sodipodi:type="arc" />
    </g>
    <rect
       style="fill:#5cd0bb;fill-opacity:1;stroke:#000000;stroke-opacity:1"
       id="rect3870"
       width="186.63756"
       height="158.80565"
       x="164.53575"
       y="487.53796"
       ry="13.097373" />
    <g
       id="g3872"
       transform="translate(10.641611,-285.68645)">
      <path
         transform="translate(0,308.2677)"
         d="m 559.09409,661.8266 c 0,22.37858 -18.14142,40.52 -40.51999,40.52 -22.37858,0 -40.52,-18.14142 -40.52,-40.52 0,-22.37858 18.14142,-40.52 40.52,-40.52 22.37857,0 40.51999,18.14142 40.51999,40.52 z"
         sodipodi:ry="40.519997"
         sodipodi:rx="40.519997"
         sodipodi:cy="661.8266"
         sodipodi:cx="518.5741"
         id="path3874"
         style="fill:#34bd46;fill-opacity:1;stroke:#000000;stroke-opacity:1"
         sodipodi:type="arc" />
      <path
         sodipodi:type="arc"
         style="fill:url(#linearGradient3880);fill-opacity:1;stroke:none"
         id="path3876"
         sodipodi:cx="518.5741"
         sodipodi:cy="661.8266"
         sodipodi:rx="40.519997"
         sodipodi:ry="40.519997"
         d="m 559.09409,661.8266 c 0,22.37858 -18.14142,40.52 -40.51999,40.52 -22.37858,0 -40.52,-18.14142 -40.52,-40.52 0,-22.37858 18.14142,-40.52 40.52,-40.52 22.37857,0 40.51999,18.14142 40.51999,40.52 z"
         transform="translate(0,308.2677)" />
    </g>
    <rect
       ry="13.097373"
       y="466.2547"
       x="445.31067"
       height="158.80565"
       width="186.63756"
       id="rect3878"
       style="fill:#5cd0bb;fill-opacity:1;stroke:#000000;stroke-opacity:1" />
    <g
       id="g3882"
       transform="translate(216.92524,-116.23919)">
      <path
         transform="translate(0,308.2677)"
         d="m 559.09409,661.8266 c 0,22.37858 -18.14142,40.52 -40.51999,40.52 -22.37858,0 -40.52,-18.14142 -40.52,-40.52 0,-22.37858 18.14142,-40.52 40.52,-40.52 22.37857,0 40.51999,18.14142 40.51999,40.52 z"
         sodipodi:ry="40.519997"
         sodipodi:rx="40.519997"
         sodipodi:cy="661.8266"
         sodipodi:cx="518.5741"
         id="path3884"
         style="fill:#34bd46;fill-opacity:1;stroke:#000000;stroke-opacity:1"
         sodipodi:type="arc" />
      <path
         sodipodi:type="arc"
         style="fill:url(#linearGradient3888);fill-opacity:1;stroke:none"
         id="path3886"
         sodipodi:cx="518.5741"
         sodipodi:cy="661.8266"
         sodipodi:rx="40.519997"
         sodipodi:ry="40.519997"
         d="m 559.09409,661.8266 c 0,22.37858 -18.14142,40.52 -40.51999,40.52 -22.37858,0 -40.52,-18.14142 -40.52,-40.52 0,-22.37858 18.14142,-40.52 40.52,-40.52 22.37857,0 40.51999,18.14142 40.51999,40.52 z"
         transform="translate(0,308.2677)" />
    </g>
    <text
       xml:space="preserve"
       style="font-size:24px;font-style:normal;font-weight:normal;line-height:125%;letter-spacing:0px;word-spacing:0px;fill:#000000;fill-opacity:1;stroke:none;font-family:Sans"
       x="780.93085"
       y="855.08301"
       id="text3890"
       sodipodi:linespacing="125%"><tspan
         sodipodi:role="line"
         id="tspan3892"
         x="780.93085"
         y="855.08301">music</tspan></text>
    <text
       xml:space="preserve"
       style="font-size:24px;font-style:normal;font-weight:normal;line-height:125%;letter-spacing:0px;word-spacing:0px;fill:#000000;fill-opacity:1;stroke:none;font-family:Sans"
       x="324.97855"
       y="403.56281"
       id="text3894"
       sodipodi:linespacing="125%"
       transform="translate(0,308.2677)"><tspan
         sodipodi:role="line"
         id="tspan3896"
         x="324.97855"
         y="403.56281">scene 1</tspan></text>
    <text
       xml:space="preserve"
       style="font-size:24px;font-style:normal;font-weight:normal;line-height:125%;letter-spacing:0px;word-spacing:0px;fill:#000000;fill-opacity:1;stroke:none;font-family:Sans"
       x="577.92157"
       y="682.36139"
       id="text3898"
       sodipodi:linespacing="125%"><tspan
         sodipodi:role="line"
         id="tspan3900"
         x="577.92157"
         y="682.36139">scene 2</tspan></text>
    <g
       transform="translate(217.74383,-214.46948)"
       id="g3902">
      <path
         sodipodi:type="arc"
         style="fill:#34bd46;fill-opacity:1;stroke:#000000;stroke-opacity:1"
         id="path3904"
         sodipodi:cx="518.5741"
         sodipodi:cy="661.8266"
         sodipodi:rx="40.519997"
         sodipodi:ry="40.519997"
         d="m 559.09409,661.8266 c 0,22.37858 -18.14142,40.52 -40.51999,40.52 -22.37858,0 -40.52,-18.14142 -40.52,-40.52 0,-22.37858 18.14142,-40.52 40.52,-40.52 22.37857,0 40.51999,18.14142 40.51999,40.52 z"
         transform="translate(0,308.2677)" />
      <path
         transform="translate(0,308.2677)"
         d="m 559.09409,661.8266 c 0,22.37858 -18.14142,40.52 -40.51999,40.52 -22.37858,0 -40.52,-18.14142 -40.52,-40.52 0,-22.37858 18.14142,-40.52 40.52,-40.52 22.37857,0 40.51999,18.14142 40.51999,40.52 z"
         sodipodi:ry="40.519997"
         sodipodi:rx="40.519997"
         sodipodi:cy="661.8266"
         sodipodi:cx="518.5741"
         id="path3906"
         style="fill:url(#linearGradient3912);fill-opacity:1;stroke:none"
         sodipodi:type="arc" />
    </g>
    <text
       sodipodi:linespacing="125%"
       id="text3908"
       y="756.85272"
       x="781.74945"
       style="font-size:24px;font-style:normal;font-weight:normal;line-height:125%;letter-spacing:0px;word-spacing:0px;fill:#000000;fill-opacity:1;stroke:none;font-family:Sans"
       xml:space="preserve"><tspan
         y="756.85272"
         x="781.74945"
         id="tspan3910"
         sodipodi:role="line">in-game terminal</tspan></text>
    <g
       id="g3914"
       transform="matrix(0.42128255,0,0,0.42128255,-15.86624,145.56891)">
      <path
         transform="translate(0,308.2677)"
         d="m 559.09409,661.8266 c 0,22.37858 -18.14142,40.52 -40.51999,40.52 -22.37858,0 -40.52,-18.14142 -40.52,-40.52 0,-22.37858 18.14142,-40.52 40.52,-40.52 22.37857,0 40.51999,18.14142 40.51999,40.52 z"
         sodipodi:ry="40.519997"
         sodipodi:rx="40.519997"
         sodipodi:cy="661.8266"
         sodipodi:cx="518.5741"
         id="path3916"
         style="fill:#34bd46;fill-opacity:1;stroke:#000000;stroke-opacity:1"
         sodipodi:type="arc" />
      <path
         sodipodi:type="arc"
         style="fill:url(#linearGradient3920);fill-opacity:1;stroke:none"
         id="path3918"
         sodipodi:cx="518.5741"
         sodipodi:cy="661.8266"
         sodipodi:rx="40.519997"
         sodipodi:ry="40.519997"
         d="m 559.09409,661.8266 c 0,22.37858 -18.14142,40.52 -40.51999,40.52 -22.37858,0 -40.52,-18.14142 -40.52,-40.52 0,-22.37858 18.14142,-40.52 40.52,-40.52 22.37857,0 40.51999,18.14142 40.51999,40.52 z"
         transform="translate(0,308.2677)" />
    </g>
    <g
       transform="matrix(0.42128255,0,0,0.42128255,36.523251,116.91841)"
       id="g3922">
      <path
         sodipodi:type="arc"
         style="fill:#34bd46;fill-opacity:1;stroke:#000000;stroke-opacity:1"
         id="path3924"
         sodipodi:cx="518.5741"
         sodipodi:cy="661.8266"
         sodipodi:rx="40.519997"
         sodipodi:ry="40.519997"
         d="m 559.09409,661.8266 c 0,22.37858 -18.14142,40.52 -40.51999,40.52 -22.37858,0 -40.52,-18.14142 -40.52,-40.52 0,-22.37858 18.14142,-40.52 40.52,-40.52 22.37857,0 40.51999,18.14142 40.51999,40.52 z"
         transform="translate(0,308.2677)" />
      <path
         transform="translate(0,308.2677)"
         d="m 559.09409,661.8266 c 0,22.37858 -18.14142,40.52 -40.51999,40.52 -22.37858,0 -40.52,-18.14142 -40.52,-40.52 0,-22.37858 18.14142,-40.52 40.52,-40.52 22.37857,0 40.51999,18.14142 40.51999,40.52 z"
         sodipodi:ry="40.519997"
         sodipodi:rx="40.519997"
         sodipodi:cy="661.8266"
         sodipodi:cx="518.5741"
         id="path3926"
         style="fill:url(#linearGradient3928);fill-opacity:1;stroke:none"
         sodipodi:type="arc" />
    </g>
    <g
       id="g3930"
       transform="matrix(0.42128255,0,0,0.42128255,7.8727477,192.22831)">
      <path
         transform="translate(0,308.2677)"
         d="m 559.09409,661.8266 c 0,22.37858 -18.14142,40.52 -40.51999,40.52 -22.37858,0 -40.52,-18.14142 -40.52,-40.52 0,-22.37858 18.14142,-40.52 40.52,-40.52 22.37857,0 40.51999,18.14142 40.51999,40.52 z"
         sodipodi:ry="40.519997"
         sodipodi:rx="40.519997"
         sodipodi:cy="661.8266"
         sodipodi:cx="518.5741"
         id="path3932"
         style="fill:#34bd46;fill-opacity:1;stroke:#000000;stroke-opacity:1"
         sodipodi:type="arc" />
      <path
         sodipodi:type="arc"
         style="fill:url(#linearGradient3936);fill-opacity:1;stroke:none"
         id="path3934"
         sodipodi:cx="518.5741"
         sodipodi:cy="661.8266"
         sodipodi:rx="40.519997"
         sodipodi:ry="40.519997"
         d="m 559.09409,661.8266 c 0,22.37858 -18.14142,40.52 -40.51999,40.52 -22.37858,0 -40.52,-18.14142 -40.52,-40.52 0,-22.37858 18.14142,-40.52 40.52,-40.52 22.37857,0 40.51999,18.14142 40.51999,40.52 z"
         transform="translate(0,308.2677)" />
    </g>
    <g
       transform="matrix(0.42128255,0,0,0.42128255,87.275569,175.03801)"
       id="g3938">
      <path
         sodipodi:type="arc"
         style="fill:#34bd46;fill-opacity:1;stroke:#000000;stroke-opacity:1"
         id="path3940"
         sodipodi:cx="518.5741"
         sodipodi:cy="661.8266"
         sodipodi:rx="40.519997"
         sodipodi:ry="40.519997"
         d="m 559.09409,661.8266 c 0,22.37858 -18.14142,40.52 -40.51999,40.52 -22.37858,0 -40.52,-18.14142 -40.52,-40.52 0,-22.37858 18.14142,-40.52 40.52,-40.52 22.37857,0 40.51999,18.14142 40.51999,40.52 z"
         transform="translate(0,308.2677)" />
      <path
         transform="translate(0,308.2677)"
         d="m 559.09409,661.8266 c 0,22.37858 -18.14142,40.52 -40.51999,40.52 -22.37858,0 -40.52,-18.14142 -40.52,-40.52 0,-22.37858 18.14142,-40.52 40.52,-40.52 22.37857,0 40.51999,18.14142 40.51999,40.52 z"
         sodipodi:ry="40.519997"
         sodipodi:rx="40.519997"
         sodipodi:cy="661.8266"
         sodipodi:cx="518.5741"
         id="path3942"
         style="fill:url(#linearGradient3944);fill-opacity:1;stroke:none"
         sodipodi:type="arc" />
    </g>
    <g
       id="g3946"
       transform="matrix(0.42128255,0,0,0.42128255,43.071937,155.39194)">
      <path
         transform="translate(0,308.2677)"
         d="m 559.09409,661.8266 c 0,22.37858 -18.14142,40.52 -40.51999,40.52 -22.37858,0 -40.52,-18.14142 -40.52,-40.52 0,-22.37858 18.14142,-40.52 40.52,-40.52 22.37857,0 40.51999,18.14142 40.51999,40.52 z"
         sodipodi:ry="40.519997"
         sodipodi:rx="40.519997"
         sodipodi:cy="661.8266"
         sodipodi:cx="518.5741"
         id="path3948"
         style="fill:#34bd46;fill-opacity:1;stroke:#000000;stroke-opacity:1"
         sodipodi:type="arc" />
      <path
         sodipodi:type="arc"
         style="fill:url(#linearGradient3952);fill-opacity:1;stroke:none"
         id="path3950"
         sodipodi:cx="518.5741"
         sodipodi:cy="661.8266"
         sodipodi:rx="40.519997"
         sodipodi:ry="40.519997"
         d="m 559.09409,661.8266 c 0,22.37858 -18.14142,40.52 -40.51999,40.52 -22.37858,0 -40.52,-18.14142 -40.52,-40.52 0,-22.37858 18.14142,-40.52 40.52,-40.52 22.37857,0 40.51999,18.14142 40.51999,40.52 z"
         transform="translate(0,308.2677)" />
    </g>
    <g
       transform="matrix(0.84035381,0,0,0.84035381,105.70878,-269.97416)"
       id="g3954">
      <path
         sodipodi:type="arc"
         style="fill:#34bd46;fill-opacity:1;stroke:#000000;stroke-opacity:1"
         id="path3956"
         sodipodi:cx="518.5741"
         sodipodi:cy="661.8266"
         sodipodi:rx="40.519997"
         sodipodi:ry="40.519997"
         d="m 559.09409,661.8266 c 0,22.37858 -18.14142,40.52 -40.51999,40.52 -22.37858,0 -40.52,-18.14142 -40.52,-40.52 0,-22.37858 18.14142,-40.52 40.52,-40.52 22.37857,0 40.51999,18.14142 40.51999,40.52 z"
         transform="translate(0,308.2677)" />
      <path
         transform="translate(0,308.2677)"
         d="m 559.09409,661.8266 c 0,22.37858 -18.14142,40.52 -40.51999,40.52 -22.37858,0 -40.52,-18.14142 -40.52,-40.52 0,-22.37858 18.14142,-40.52 40.52,-40.52 22.37857,0 40.51999,18.14142 40.51999,40.52 z"
         sodipodi:ry="40.519997"
         sodipodi:rx="40.519997"
         sodipodi:cy="661.8266"
         sodipodi:cx="518.5741"
         id="path3958"
         style="fill:url(#linearGradient3960);fill-opacity:1;stroke:none"
         sodipodi:type="arc" />
    </g>
    <g
       id="g3962"
       transform="matrix(0.29157002,0,0,0.29157002,312.93747,270.17442)">
      <path
         transform="translate(0,308.2677)"
         d="m 559.09409,661.8266 c 0,22.37858 -18.14142,40.52 -40.51999,40.52 -22.37858,0 -40.52,-18.14142 -40.52,-40.52 0,-22.37858 18.14142,-40.52 40.52,-40.52 22.37857,0 40.51999,18.14142 40.51999,40.52 z"
         sodipodi:ry="40.519997"
         sodipodi:rx="40.519997"
         sodipodi:cy="661.8266"
         sodipodi:cx="518.5741"
         id="path3964"
         style="fill:#34bd46;fill-opacity:1;stroke:#000000;stroke-opacity:1"
         sodipodi:type="arc" />
      <path
         sodipodi:type="arc"
         style="fill:url(#linearGradient3968);fill-opacity:1;stroke:none"
         id="path3966"
         sodipodi:cx="518.5741"
         sodipodi:cy="661.8266"
         sodipodi:rx="40.519997"
         sodipodi:ry="40.519997"
         d="m 559.09409,661.8266 c 0,22.37858 -18.14142,40.52 -40.51999,40.52 -22.37858,0 -40.52,-18.14142 -40.52,-40.52 0,-22.37858 18.14142,-40.52 40.52,-40.52 22.37857,0 40.51999,18.14142 40.51999,40.52 z"
         transform="translate(0,308.2677)" />
    </g>
    <g
       transform="matrix(0.29157002,0,0,0.29157002,461.92009,298.00634)"
       id="g3970">
      <path
         sodipodi:type="arc"
         style="fill:#34bd46;fill-opacity:1;stroke:#000000;stroke-opacity:1"
         id="path3972"
         sodipodi:cx="518.5741"
         sodipodi:cy="661.8266"
         sodipodi:rx="40.519997"
         sodipodi:ry="40.519997"
         d="m 559.09409,661.8266 c 0,22.37858 -18.14142,40.52 -40.51999,40.52 -22.37858,0 -40.52,-18.14142 -40.52,-40.52 0,-22.37858 18.14142,-40.52 40.52,-40.52 22.37857,0 40.51999,18.14142 40.51999,40.52 z"
         transform="translate(0,308.2677)" />
      <path
         transform="translate(0,308.2677)"
         d="m 559.09409,661.8266 c 0,22.37858 -18.14142,40.52 -40.51999,40.52 -22.37858,0 -40.52,-18.14142 -40.52,-40.52 0,-22.37858 18.14142,-40.52 40.52,-40.52 22.37857,0 40.51999,18.14142 40.51999,40.52 z"
         sodipodi:ry="40.519997"
         sodipodi:rx="40.519997"
         sodipodi:cy="661.8266"
         sodipodi:cx="518.5741"
         id="path3974"
         style="fill:url(#linearGradient3976);fill-opacity:1;stroke:none"
         sodipodi:type="arc" />
    </g>
    <text
       xml:space="preserve"
       style="font-size:24px;font-style:normal;font-weight:normal;line-height:125%;letter-spacing:0px;word-spacing:0px;fill:#000000;fill-opacity:1;stroke:none;font-family:Sans"
       x="552.54541"
       y="936.12299"
       id="text3997"
       sodipodi:linespacing="125%"><tspan
         sodipodi:role="line"
         id="tspan3999"
         x="552.54541"
         y="936.12299">root</tspan></text>
    <text
       xml:space="preserve"
       style="font-size:24px;font-style:normal;font-weight:normal;line-height:125%;letter-spacing:0px;word-spacing:0px;fill:#000000;fill-opacity:1;stroke:none;font-family:Sans"
       x="769.47064"
       y="364.27069"
       id="text4020"
       sodipodi:linespacing="125%"
       transform="translate(0,308.2677)"><tspan
         sodipodi:role="line"
         id="tspan4022"></tspan></text>
    <path
       style="fill:none;stroke:#000000;stroke-width:1px;stroke-linecap:butt;stroke-linejoin:miter;stroke-opacity:1"
       d="M 509.16036,632.76682 734.27145,549.27106"
       id="path4054"
       inkscape:connector-curvature="0"
       transform="translate(0,308.2677)" />
    <path
       style="fill:none;stroke:#000000;stroke-width:1px;stroke-linecap:butt;stroke-linejoin:miter;stroke-opacity:1"
       d="M 502.61167,617.21369 741.63873,445.31067"
       id="path4056"
       inkscape:connector-curvature="0"
       transform="translate(0,308.2677)" />
    <path
       style="fill:none;stroke:#000000;stroke-width:1px;stroke-linecap:butt;stroke-linejoin:miter;stroke-opacity:1"
       d="M 500.9745,631.12964 266.85897,409.29289"
       id="path4058"
       inkscape:connector-curvature="0"
       transform="translate(0,308.2677)" />
    <path
       style="fill:none;stroke:#000000;stroke-width:1;stroke-linecap:butt;stroke-linejoin:miter;stroke-opacity:1;stroke-miterlimit:4;stroke-dasharray:24,24;stroke-dashoffset:0"
       d="M 508.34178,622.1252 527.16925,371.63795"
       id="path4060"
       inkscape:connector-curvature="0"
       transform="translate(0,308.2677)" />
    <path
       style="fill:none;stroke:#000000;stroke-width:1px;stroke-linecap:butt;stroke-linejoin:miter;stroke-opacity:1"
       d="m 261.12887,397.01411 6.54868,-81.85858"
       id="path4062"
       inkscape:connector-curvature="0"
       transform="translate(0,308.2677)" />
    <path
       style="fill:none;stroke:#000000;stroke-width:1px;stroke-linecap:butt;stroke-linejoin:miter;stroke-opacity:1"
       d="M 251.30584,394.55835 229.20402,301.23957"
       id="path4064"
       inkscape:connector-curvature="0"
       transform="translate(0,308.2677)" />
    <path
       style="fill:none;stroke:#000000;stroke-width:1px;stroke-linecap:butt;stroke-linejoin:miter;stroke-opacity:1"
       d="M 288.96078,398.65128 307.78826,275.86341"
       id="path4066"
       inkscape:connector-curvature="0"
       transform="translate(0,308.2677)" />
    <path
       style="fill:none;stroke:#000000;stroke-width:1px;stroke-linecap:butt;stroke-linejoin:miter;stroke-opacity:1"
       d="M 279.95634,388.00966 265.2218,261.94745"
       id="path4068"
       inkscape:connector-curvature="0"
       transform="translate(0,308.2677)" />
    <path
       style="fill:none;stroke:#000000;stroke-width:1px;stroke-linecap:butt;stroke-linejoin:miter;stroke-opacity:1"
       d="M 260.31028,404.38138 204.64645,246.39432"
       id="path4070"
       inkscape:connector-curvature="0"
       transform="translate(0,308.2677)" />
    <path
       style="fill:none;stroke:#000000;stroke-width:1px;stroke-linecap:butt;stroke-linejoin:miter;stroke-opacity:1"
       d="m 240.66422,410.11148 18.00889,-201.3721"
       id="path4072"
       inkscape:connector-curvature="0"
       transform="translate(0,308.2677)" />
    <path
       style="fill:none;stroke:#000000;stroke-width:1px;stroke-linecap:butt;stroke-linejoin:miter;stroke-opacity:1"
       d="M 544.35955,372.45653 465.77531,240.66422"
       id="path4074"
       inkscape:connector-curvature="0"
       transform="translate(0,308.2677)" />
    <path
       style="fill:none;stroke:#000000;stroke-width:1px;stroke-linecap:butt;stroke-linejoin:miter;stroke-opacity:1"
       d="M 555.81975,373.27512 616.3951,270.9519"
       id="path4076"
       inkscape:connector-curvature="0"
       transform="translate(0,308.2677)" />
    <path
       style="fill:none;stroke:#000000;stroke-width:1px;stroke-linecap:butt;stroke-linejoin:miter;stroke-opacity:1"
       d="M 523.89491,358.54058 545.99672,239.02705"
       id="path4078"
       inkscape:connector-curvature="0"
       transform="translate(0,308.2677)" />
    <path
       style="fill:none;stroke:#000000;stroke-width:1px;stroke-linecap:butt;stroke-linejoin:miter;stroke-opacity:1"
       d="m 516.52763,367.54502 48.29656,-74.49131"
       id="path4080"
       inkscape:connector-curvature="0"
       transform="translate(0,308.2677)" />
  </g>
</svg>
